<?xml version="1.0" encoding="UTF-8"?><svg id="Layer_1" xmlns="http://www.w3.org/2000/svg" viewBox="0 0 452.41 452.86"><defs><style>.cls-1{fill:#3041f2;}.cls-2{fill:#bdcdfc;}</style></defs><path class="cls-2" d="m411.45,188.49h-62.49c-2.73,0-5.17-1.63-6.22-4.16-1.04-2.52-.47-5.4,1.46-7.33l33.43-33.43c19.34-19.33-2.04,2.04,10.58-10.58,7.34-7.33,11.37-17.08,11.37-27.44s-4.04-20.11-11.37-27.44l-7.31-7.31c-7.33-7.33-17.08-11.36-27.43-11.36s-20.1,4.03-27.44,11.36c-22.34,22.33-13.42,13.42-44.01,44.01-1.94,1.94-4.82,2.51-7.35,1.47-2.52-1.05-4.15-3.49-4.15-6.22v-53.82c0-10.37-4.04-20.11-11.36-27.43-7.22-7.23-17.22-11.38-27.45-11.38h-10.33c-10.22,0-20.23,4.15-27.43,11.36-7.34,7.33-11.37,17.08-11.37,27.44v53.82c0,2.73-1.63,5.17-4.15,6.22-2.53,1.05-5.42.47-7.34-1.46-19.02-19.02-10.88-10.88-25.36-25.37-7.33-7.33-17.07-11.37-27.44-11.37s-20.11,4.04-27.44,11.36l-7.31,7.31c-7.33,7.33-11.37,17.07-11.37,27.44s4.04,20.11,11.37,27.44l25.36,25.36c1.93,1.94,2.51,4.81,1.47,7.33-1.05,2.53-3.49,4.16-6.22,4.16h-63.94c-21.39,0-38.8,17.41-38.8,38.8v10.33c0,21.4,17.4,38.8,38.8,38.8h63.94c2.73,0,5.17,1.63,6.22,4.16,1.04,2.52.47,5.4-1.46,7.33l-34.7,34.7c-7.33,7.33-11.37,17.07-11.37,27.44s4.04,20.11,11.37,27.44l7.31,7.31c7.33,7.33,17.07,11.37,27.44,11.37s20.11-4.04,27.44-11.37l34.69-34.7c1.94-1.94,4.82-2.51,7.35-1.47,2.52,1.05,4.15,3.49,4.15,6.22v21.75c0,10.37,4.04,20.11,11.36,27.43,7.22,7.23,17.22,11.37,27.45,11.37h10.33c10.23,0,20.23-4.15,27.43-11.36,7.34-7.33,11.37-17.08,11.37-27.44v-21.75c0-2.73,1.63-5.17,4.15-6.22,2.53-1.05,5.42-.47,7.34,1.45l62.35,62.36c15.14,15.13,39.75,15.12,54.87,0l7.32-7.31c15.12-15.13,15.12-39.74,0-54.88l-62.35-62.34c-1.93-1.93-2.51-4.81-1.46-7.33,1.05-2.53,3.49-4.16,6.22-4.16h62.49c21.39,0,38.8-17.41,38.8-38.8v-10.33c0-21.4-17.4-38.8-38.8-38.8Z"/><g><path class="cls-1" d="m29.22,258.24l-8.35-44.34h10.06l2.34,16.89c.78,5.69,1.56,11.98,1.95,17.32h.31c.38-5.44,1.32-11.44,2.04-17.22l2.19-16.99h9.83l-8.35,44.34h-12.02Z"/><path class="cls-1" d="m62.29,213.9v44.34h-9.48v-44.34h9.48Z"/><path class="cls-1" d="m75.86,245.05v1.31c.15,3.33,1.05,5.35,3.63,5.35s3.28-2,3.28-4.34c0-3.54-1.22-5.1-6.14-8.24-6.55-4.08-9.31-7.08-9.31-13.6,0-7.05,3.55-12.39,12.17-12.39,9.73,0,11.99,6.3,12.04,12.37v1.09h-9.06v-1.13c-.1-2.92-.61-5.01-2.99-5.01-1.97,0-2.77,1.42-2.77,3.91s.78,3.91,5.11,6.51c7.5,4.56,10.5,7.79,10.5,15.18s-3.47,12.95-12.94,12.95-12.71-5.7-12.83-12.82v-1.13h9.33Z"/><path class="cls-1" d="m106.12,213.9v44.34h-9.48v-44.34h9.48Z"/><path class="cls-1" d="m117.4,221.9h-7.77v-8h25v8h-7.76v36.34h-9.46v-36.34Z"/><path class="cls-1" d="m153.37,221.9h-7.77v-8h25v8h-7.76v36.34h-9.46v-36.34Z"/><path class="cls-1" d="m174.11,213.9h9.49v16.89h6.78v-16.89h9.53v44.34h-9.53v-19.33h-6.78v19.33h-9.49v-44.34Z"/><path class="cls-1" d="m227.01,239.11h-11.6v11.21h13.29l-1.12,7.92h-21.54v-44.34h21.53v8h-12.16v9.26h11.6v7.95Z"/><path class="cls-1" d="m250.78,248.3l-1.33,9.94h-9.55l7.69-44.34h13.64l7.82,44.34h-9.85l-1.41-9.94h-7Zm5.92-8.12c-.85-6.13-1.78-13.95-2.28-18.1h-.33c-.31,3.76-1.38,12.05-2.24,18.1h4.85Z"/><path class="cls-1" d="m281.72,239.62v18.62h-9.4v-44.34h13.31c8.08,0,12.14,3.83,12.14,11.74v.68c0,6.22-2.81,8.67-5.15,9.65,3.17,1.46,4.66,3.96,4.66,10.25v.89c0,4.65.08,9.01.4,11.12h-9.19c-.53-1.84-.62-6.56-.62-11.46v-.88c0-5.14-.85-6.29-4.47-6.29h-1.69Zm.02-7.24h1.81c3.4,0,4.74-1.17,4.74-5.42v-.91c0-3.37-.99-4.91-4.25-4.91h-2.29v11.24Z"/><path class="cls-1" d="m327.73,244.1v1.02c-.07,5.02-1.46,13.88-12.87,13.88-10.23,0-13.09-6.83-13.09-18.42v-9.25c0-12.5,4.56-18.16,13.41-18.16,10.78,0,12.43,7.82,12.5,13.33v1.18h-9.48v-1.61c-.05-2.46-.31-5.19-3.11-5.19s-3.51,2.82-3.51,10.12v9.98c0,6.48.47,10.37,3.44,10.37,2.78,0,3.14-2.95,3.21-5.68v-1.57h9.51Z"/><path class="cls-1" d="m331.78,213.9h9.49v16.89h6.78v-16.89h9.53v44.34h-9.53v-19.33h-6.78v19.33h-9.49v-44.34Z"/><path class="cls-1" d="m373.21,213.9v44.34h-9.48v-44.34h9.48Z"/><path class="cls-1" d="m384.76,258.24l-8.35-44.34h10.06l2.34,16.89c.78,5.69,1.56,11.98,1.95,17.32h.31c.38-5.44,1.32-11.44,2.04-17.22l2.19-16.99h9.83l-8.35,44.34h-12.02Z"/><path class="cls-1" d="m429.29,239.11h-11.6v11.21h13.29l-1.12,7.92h-21.54v-44.34h21.53v8h-12.16v9.26h11.6v7.95Z"/></g></svg>