<?xml version="1.0" encoding="UTF-8"?><svg id="Layer_1" xmlns="http://www.w3.org/2000/svg" viewBox="0 0 452.41 452.86"><defs><style>.cls-1{fill:#3041f2;}.cls-2{fill:#bdcdfc;}</style></defs><path class="cls-2" d="m392.21,183.49h-43.25c-2.73,0-5.17-1.63-6.22-4.16-1.04-2.52-.47-5.4,1.46-7.33l43.43-43.43c19.34-19.33-2.04,2.04,10.58-10.58,7.34-7.33,11.37-17.08,11.37-27.44s-4.04-20.11-11.37-27.44l-7.31-7.31c-7.33-7.33-17.08-11.36-27.43-11.36s-20.1,4.03-27.44,11.36c-22.34,22.33-23.42,23.42-54.01,54.01-1.94,1.94-4.82,2.51-7.35,1.47-2.52-1.05-4.15-3.49-4.15-6.22v-43.82c0-10.37-4.04-20.11-11.36-27.43-7.22-7.23-17.22-11.38-27.45-11.38h-10.33c-10.22,0-20.23,4.15-27.43,11.36-7.34,7.33-11.37,17.08-11.37,27.44v43.82c0,2.73-1.63,5.17-4.15,6.22-2.53,1.05-5.42.47-7.34-1.46-19.02-19.02-10.88-10.88-25.36-25.37-7.33-7.33-17.07-11.37-27.44-11.37s-20.11,4.04-27.44,11.36l-7.31,7.31c-7.33,7.33-11.37,17.07-11.37,27.44s4.04,20.11,11.37,27.44l25.36,25.36c1.93,1.94,2.51,4.81,1.47,7.33-1.05,2.53-3.49,4.16-6.22,4.16h-35.94c-21.39,0-38.8,17.41-38.8,38.8v10.33c0,21.4,17.4,38.8,38.8,38.8h35.94c2.73,0,5.17,1.63,6.22,4.16,1.04,2.52.47,5.4-1.46,7.33l-24.7,24.7c-7.33,7.33-11.37,17.07-11.37,27.44s4.04,20.11,11.37,27.44l7.31,7.31c7.33,7.33,17.07,11.37,27.44,11.37s20.11-4.04,27.44-11.37l24.69-24.69c1.94-1.94,4.82-2.51,7.35-1.47,2.52,1.05,4.15,3.49,4.15,6.22v61.75c0,10.37,4.04,20.11,11.36,27.43,7.22,7.23,17.22,11.37,27.45,11.37h10.33c10.23,0,20.23-4.15,27.43-11.36,7.34-7.33,11.37-17.08,11.37-27.44v-61.75c0-2.73,1.63-5.17,4.15-6.22,2.53-1.05,5.42-.47,7.34,1.45l32.35,32.35c15.14,15.13,39.75,15.12,54.87,0l7.32-7.31c15.12-15.13,15.12-39.74,0-54.88l-32.34-32.34c-1.93-1.93-2.51-4.81-1.46-7.33,1.05-2.53,3.49-4.16,6.22-4.16h43.25c21.39,0,38.8-17.41,38.8-38.8v-10.33c0-21.4-17.4-38.8-38.8-38.8Z"/><g><path class="cls-1" d="m98.04,236.13v1.31c.15,3.33,1.05,5.35,3.63,5.35s3.28-2,3.28-4.34c0-3.54-1.22-5.1-6.14-8.24-6.55-4.08-9.31-7.08-9.31-13.6,0-7.05,3.55-12.39,12.17-12.39,9.73,0,11.99,6.3,12.04,12.37v1.09h-9.06v-1.13c-.1-2.92-.61-5.01-2.99-5.01-1.97,0-2.77,1.42-2.77,3.91s.78,3.91,5.11,6.51c7.5,4.56,10.5,7.79,10.5,15.18s-3.47,12.95-12.94,12.95-12.71-5.7-12.83-12.82v-1.13h9.33Z"/><path class="cls-1" d="m128.07,204.98v32.2c0,2.76.68,5.22,3.58,5.22s3.51-2.28,3.51-5.19v-32.23h9.55v31.8c0,8.53-4.08,13.28-13.25,13.28s-12.9-4.67-12.9-13.36v-31.72h9.51Z"/><path class="cls-1" d="m150.35,204.98h13.2c7.55,0,12.29,4.11,12.29,12.72v1.15c0,8.63-4.1,13.11-12.69,13.11h-3.35v17.36h-9.45v-44.34Zm9.45,19.56h2.11c3.39,0,4.45-1.75,4.45-5.72v-1.3c0-3.59-1.3-5.28-4.16-5.28h-2.4v12.31Z"/><path class="cls-1" d="m179.99,204.98h13.2c7.55,0,12.29,4.11,12.29,12.72v1.15c0,8.63-4.1,13.11-12.69,13.11h-3.35v17.36h-9.45v-44.34Zm9.45,19.56h2.11c3.39,0,4.45-1.75,4.45-5.72v-1.3c0-3.59-1.3-5.28-4.16-5.28h-2.4v12.31Z"/><path class="cls-1" d="m236.3,222.6v8.75c0,13.08-4.31,18.73-13.94,18.73-9.03,0-13.26-5.75-13.26-18.82v-8.89c0-12.67,4.91-18.15,13.67-18.15s13.53,5.74,13.53,18.37Zm-17.42-.54v9.65c0,7.45.97,10.68,3.79,10.68,2.97,0,3.83-2.98,3.83-10.69v-9.66c0-7.22-.83-10.07-3.84-10.07-2.79,0-3.78,2.91-3.78,10.1Z"/><path class="cls-1" d="m250.77,230.7v18.62h-9.4v-44.34h13.31c8.08,0,12.14,3.83,12.14,11.74v.68c0,6.22-2.81,8.67-5.15,9.65,3.17,1.46,4.66,3.96,4.66,10.25v.89c0,4.65.08,9.01.4,11.12h-9.19c-.53-1.84-.62-6.56-.62-11.46v-.88c0-5.14-.85-6.29-4.47-6.29h-1.69Zm.02-7.24h1.81c3.4,0,4.74-1.17,4.74-5.42v-.91c0-3.37-.99-4.91-4.25-4.91h-2.29v11.24Z"/><path class="cls-1" d="m277.12,212.98h-7.77v-8h25v8h-7.76v36.34h-9.46v-36.34Z"/><path class="cls-1" d="m317.09,204.98v32.2c0,2.76.68,5.22,3.58,5.22s3.51-2.28,3.51-5.19v-32.23h9.55v31.8c0,8.53-4.08,13.28-13.25,13.28s-12.9-4.67-12.9-13.36v-31.72h9.51Z"/><path class="cls-1" d="m347.05,236.13v1.31c.15,3.33,1.05,5.35,3.63,5.35s3.28-2,3.28-4.34c0-3.54-1.22-5.1-6.14-8.24-6.55-4.08-9.31-7.08-9.31-13.6,0-7.05,3.55-12.39,12.17-12.39,9.73,0,11.99,6.3,12.04,12.37v1.09h-9.06v-1.13c-.1-2.92-.61-5.01-2.99-5.01-1.97,0-2.77,1.42-2.77,3.91s.78,3.91,5.11,6.51c7.5,4.56,10.5,7.79,10.5,15.18s-3.47,12.95-12.94,12.95-12.71-5.7-12.83-12.82v-1.13h9.33Z"/></g></svg>