<?xml version="1.0" encoding="UTF-8"?><svg id="Layer_1" xmlns="http://www.w3.org/2000/svg" viewBox="0 0 452.41 452.86"><defs><style>.cls-1{fill:#3041f2;}.cls-2{fill:#bdcdfc;}</style></defs><path class="cls-1" d="m59.66,37.43h333.09c12.29,0,22.27,9.98,22.27,22.27v333.47c0,12.29-9.98,22.27-22.27,22.27H59.66c-12.29,0-22.27-9.98-22.27-22.27V59.69c0-12.29,9.98-22.27,22.27-22.27Z"/><path class="cls-2" d="m212.81,451.43c-80.02,0-145.11-65.1-145.11-145.11s65.1-145.11,145.11-145.11,145.12,65.1,145.12,145.11-65.1,145.11-145.12,145.11Zm0-230.23c-46.93,0-85.11,38.18-85.11,85.11s38.18,85.11,85.11,85.11,85.12-38.18,85.12-85.11-38.18-85.11-85.12-85.11Z"/><path class="cls-2" d="m410.02,152.92c-23.37,0-42.39-19.01-42.39-42.39s19.01-42.39,42.39-42.39,42.39,19.01,42.39,42.39-19.01,42.39-42.39,42.39Z"/></svg>