<?xml version="1.0" encoding="UTF-8"?><svg id="Layer_1" xmlns="http://www.w3.org/2000/svg" viewBox="0 0 452.41 452.86"><defs><style>.cls-1{fill:#bdcdfc;}.cls-2{fill:#3041f2;fill-rule:evenodd;}</style></defs><path class="cls-2" d="m415.05,59.68c0-12.3-10-22.3-22.3-22.3H59.65c-12.3,0-22.3,10-22.3,22.3v333.5c0,12.3,10,22.3,22.3,22.3h333.1c12.3,0,22.3-10,22.3-22.3V59.68Z"/><path class="cls-1" d="m222.81,451.56c-80.02,0-145.11-65.1-145.11-145.11s65.1-145.12,145.11-145.12c16.57,0,30,13.43,30,30s-13.43,30-30,30c-46.93,0-85.11,38.18-85.11,85.12s38.18,85.11,85.11,85.11,85.11-38.18,85.11-85.11c0-16.57,13.43-30,30-30s30,13.43,30,30c0,80.02-65.1,145.11-145.11,145.11Z"/><path class="cls-1" d="m421.76,372.01h-16.12c-7.96,0-15.59-3.16-21.21-8.79l-51.93-51.93h-105.95c-16.57,0-30-13.43-30-30v-89.96c0-16.57,13.43-30,30-30s30,13.43,30,30v59.96h88.37c7.96,0,15.59,3.16,21.21,8.79l51.93,51.93h3.69c16.57,0,30,13.43,30,30s-13.43,30-30,30Z"/><path class="cls-1" d="m278.67,120.66c-33.06,0-59.95-26.89-59.95-59.95S245.61.77,278.67.77s59.95,26.89,59.95,59.95-26.89,59.95-59.95,59.95Zm-.03-60v.1s.05-.05.05-.05l-.05-.05Z"/></svg>