<?xml version="1.0" encoding="UTF-8"?><svg id="Layer_1" xmlns="http://www.w3.org/2000/svg" viewBox="0 0 452.41 452.86"><defs><style>.cls-1{fill:#3041f2;}.cls-2{fill:#bdcdfc;}</style></defs><path class="cls-1" d="m59.66,37.43h333.09c12.29,0,22.27,9.98,22.27,22.27v333.47c0,12.29-9.98,22.27-22.27,22.27H59.66c-12.29,0-22.27-9.98-22.27-22.27V59.69c0-12.29,9.98-22.27,22.27-22.27Z"/><path class="cls-2" d="m453.39,140.59c0-10.94-4.29-14.25-16.25-16.54-34.52-6.61-120.41-19.16-120.41,80.36v41.31c0,6.36-5.16,11.52-11.52,11.52h-30.55c-11.89,0-17.36,4.1-17.36,17.98v31.22c0,12.6,3.94,15.94,17.94,15.94h29.97c6.36,0,11.52,5.16,11.52,11.52v103.64c0,11.71,7.64,12.87,14.26,12.87h40.22c9.93,0,13.22-6,13.22-14.4v-102.11c0-6.36,5.16-11.52,11.52-11.52h31.5c10.7,0,16.93-2.07,18.92-12.94,1.8-9.83,5.55-28.24,6.63-34.5,2.21-12.93-2.88-17.71-16.88-17.71h-40.16c-6.36,0-11.52-5.16-11.52-11.52v-21.69c0-39.05,24.21-37.93,40.93-35.86,19.42,2.4,28.03,1.9,28.03-16.43v-31.16Z"/></svg>